<svg width="820" height="880" viewBox="0 0 820 880" xmlns="http://www.w3.org/2000/svg">

<style>
    .title { font: bold 26px 'Inter', sans-serif; fill: #0A1A2F; }
    .box { fill: #f9f9ff; stroke: #444; stroke-width: 1.3; rx: 8; }
    .text { font: 15px 'Inter', sans-serif; fill: #000814; }
    .small { font: 13px 'Inter', sans-serif; fill: #000814; }
    .arrow { stroke: #000; stroke-width: 1.4; marker-end: url(#arrowhead); }
</style>

<defs>
    <marker id="arrowhead" markerWidth="10" markerHeight="7"
        refX="9" refY="3.5" orient="auto">
        <polygon points="0 0, 10 3.5, 0 7" fill="#000"/>
    </marker>
</defs>

<!-- TÍTULO -->
<text x="410" y="50" text-anchor="middle" class="title">
    LICHTARA LICENSE v4 — Fluxograma Público de Permissões
</text>

<!-- BLOCO CENTRAL -->
<rect x="200" y="90" width="420" height="90" class="box" />
<text x="410" y="130" text-anchor="middle" class="text">
    Estrutura que Organiza o Uso da Obra
</text>
<text x="410" y="155" text-anchor="middle" class="small">
    Proteção • Coerência • Responsabilidade
</text>

<!-- USO LIVRE -->
<rect x="50" y="240" width="240" height="160" class="box" />
<text x="170" y="275" text-anchor="middle" class="text">USO LIVRE</text>
<text x="170" y="305" text-anchor="middle" class="small">• Estudo</text>
<text x="170" y="325" text-anchor="middle" class="small">• Citação com crédito</text>
<text x="170" y="345" text-anchor="middle" class="small">• Compartilhamento não comercial</text>
<text x="170" y="375" text-anchor="middle" class="small">Não requer autorização</text>

<!-- USO CONDICIONADO -->
<rect x="290" y="240" width="240" height="190" class="box" />
<text x="410" y="275" text-anchor="middle" class="text">USO CONDICIONADO</text>
<text x="410" y="305" text-anchor="middle" class="small">• Traduções</text>
<text x="410" y="325" text-anchor="middle" class="small">• Adaptações</text>
<text x="410" y="345" text-anchor="middle" class="small">• Materiais educacionais</text>
<text x="410" y="365" text-anchor="middle" class="small">• Derivados estruturados</text>
<text x="410" y="395" text-anchor="middle" class="small">Requer autorização da Guardiã</text>

<!-- USO RESTRITO -->
<rect x="530" y="240" width="240" height="190" class="box" />
<text x="650" y="275" text-anchor="middle" class="text">USO RESTRITO</text>
<text x="650" y="305" text-anchor="middle" class="small">• Copiar frameworks</text>
<text x="650" y="325" text-anchor="middle" class="small">• Treinar IA</text>
<text x="650" y="345" text-anchor="middle" class="small">• Criar sistemas derivados</text>
<text x="650" y="365" text-anchor="middle" class="small">• Uso comercial não autorizado</text>
<text x="650" y="395" text-anchor="middle" class="small">Proibido. Sem exceções.</text>

<!-- SETAS -->
<line x1="410" y1="180" x2="170" y2="240" class="arrow"/>
<line x1="410" y1="180" x2="410" y2="240" class="arrow"/>
<line x1="410" y1="180" x2="650" y2="240" class="arrow"/>

<!-- BASES DA DECISÃO -->
<rect x="200" y="460" width="420" height="120" class="box" />
<text x="410" y="500" text-anchor="middle" class="text">BASES DA DECISÃO</text>
<text x="410" y="525" text-anchor="middle" class="small">Integridade • Coerência • Responsabilidade</text>

<line x1="170" y1="400" x2="410" y2="460" class="arrow"/>
<line x1="410" y1="430" x2="410" y2="460" class="arrow"/>
<line x1="650" y1="430" x2="410" y2="460" class="arrow"/>

<!-- COMO SOLICITAR -->
<rect x="200" y="610" width="420" height="120" class="box" />
<text x="410" y="650" text-anchor="middle" class="text">COMO SOLICITAR AUTORIZAÇÃO</text>
<text x="410" y="675" text-anchor="middle" class="small">1. Email: admin@deboralutz.com</text>
<text x="410" y="695" text-anchor="middle" class="small">2. Assunto: Solicitação de Autorização — License v4</text>
<text x="410" y="715" text-anchor="middle" class="small">3. Enviar: descrição, finalidade, materiais, prazo</text>

<line x1="410" y1="580" x2="410" y2="610" class="arrow"/>

<!-- LINKS -->
<rect x="200" y="760" width="420" height="85" class="box" />
<text x="410" y="792" text-anchor="middle" class="text">LINKS OFICIAIS</text>
<text x="410" y="817" text-anchor="middle" class="small">license.lichtara.com • github.com/lichtara • lichtara.com</text>

<line x1="410" y1="730" x2="410" y2="760" class="arrow"/>

</svg>
